<?xml version="1.0" encoding="iso-8859-1"?>
<!-- Generator: Adobe Illustrator 19.0.0, SVG Export Plug-In . SVG Version: 6.00 Build 0)  -->
<svg version="1.1" id="Capa_1" xmlns="http://www.w3.org/2000/svg" xmlns:xlink="http://www.w3.org/1999/xlink" x="0px" y="0px"
	 viewBox="0 0 489.6 489.6" style="enable-background:new 0 0 489.6 489.6;" xml:space="preserve">
<g>
	<g>
		<path d="M386.8,4.15c-34.1,0-61.8,27.7-61.8,61.8s27.7,61.8,61.8,61.8s61.8-27.7,61.8-61.8S420.9,4.15,386.8,4.15z M386.8,103.25
			c-20.6,0-37.3-16.7-37.3-37.3s16.7-37.3,37.3-37.3s37.3,16.7,37.3,37.3S407.4,103.25,386.8,103.25z"/>
		<path d="M244.8,127.75c34.1,0,61.8-27.7,61.8-61.8s-27.7-61.8-61.8-61.8S183,31.85,183,65.95
			C183,100.05,210.7,127.75,244.8,127.75z M244.8,28.65c20.6,0,37.3,16.7,37.3,37.3s-16.7,37.3-37.3,37.3
			c-20.6,0-37.3-16.7-37.3-37.3C207.5,45.45,224.2,28.65,244.8,28.65z"/>
		<path d="M428.3,140.25h-52.6c-6.8,0-12.3,5.5-12.3,12.3s5.5,12.3,12.3,12.3h52.6c20.3,0,36.8,16.5,36.8,36.8v78.3
			c0,15.3-9.7,29.2-24.2,34.5c-4.8,1.8-8,6.4-8,11.5v110.6c0,13.4-10.9,24.3-24.3,24.3H353c-6.8,0-12.3,5.5-12.3,12.3
			s5.5,12.3,12.3,12.3h55.6c26.9,0,48.8-21.9,48.8-48.8v-103c19.6-10.6,32.2-31.3,32.2-53.9v-78.3
			C489.6,167.65,462.1,140.25,428.3,140.25z"/>
		<path d="M217,485.15h55.6c26.9,0,48.8-21.9,48.8-48.8v-102.7c19.6-10.6,32.2-31.3,32.2-53.9v-78.3c0-33.8-27.5-61.3-61.3-61.3
			h-95.1c-33.8,0-61.3,27.5-61.3,61.3v78.3c0,22.6,12.6,43.3,32.2,53.9v102.7C168.2,463.25,190.1,485.15,217,485.15z M160.5,279.75
			v-78.3c0-20.3,16.5-36.8,36.8-36.8h95.1c20.3,0,36.8,16.5,36.8,36.8v78.3c0,15.3-9.7,29.2-24.1,34.5c-4.8,1.8-8,6.4-8,11.5v110.6
			c0,13.4-10.9,24.3-24.3,24.3h-55.6c-13.4,0-24.3-10.9-24.3-24.3v-110.6c0-5.1-3.2-9.7-8-11.5
			C170.2,308.95,160.5,295.05,160.5,279.75z"/>
		<path d="M164.6,65.95c0-34.1-27.7-61.8-61.8-61.8S41,31.85,41,65.95s27.7,61.8,61.8,61.8C136.8,127.75,164.6,100.05,164.6,65.95z
			 M65.5,65.95c0-20.5,16.7-37.3,37.3-37.3s37.3,16.7,37.3,37.3s-16.7,37.3-37.3,37.3C82.2,103.25,65.5,86.55,65.5,65.95z"/>
		<path d="M81,485.15h55.6c6.8,0,12.3-5.5,12.3-12.3s-5.5-12.3-12.3-12.3H81c-13.4,0-24.3-10.9-24.3-24.3v-110.5
			c0-5.1-3.2-9.7-8-11.5c-14.4-5.3-24.1-19.1-24.1-34.5v-78.3c0-20.3,16.5-36.8,36.8-36.8h52.4c6.8,0,12.3-5.5,12.3-12.3
			s-5.5-12.3-12.3-12.3H61.3c-33.8,0-61.3,27.5-61.3,61.3v78.3c0,22.6,12.6,43.3,32.2,53.9v102.7C32.2,463.25,54.1,485.15,81,485.15
			z"/>
	</g>
</g>
<g>
</g>
<g>
</g>
<g>
</g>
<g>
</g>
<g>
</g>
<g>
</g>
<g>
</g>
<g>
</g>
<g>
</g>
<g>
</g>
<g>
</g>
<g>
</g>
<g>
</g>
<g>
</g>
<g>
</g>
</svg>
