<?xml version="1.0" encoding="iso-8859-1"?>
<!-- Generator: Adobe Illustrator 19.0.0, SVG Export Plug-In . SVG Version: 6.00 Build 0)  -->
<svg version="1.1" id="Capa_1" xmlns="http://www.w3.org/2000/svg" xmlns:xlink="http://www.w3.org/1999/xlink" x="0px" y="0px"
	 viewBox="0 0 490.009 490.009" style="enable-background:new 0 0 490.009 490.009;" xml:space="preserve">
<g>
	<g>
		<path d="M253.354,342.609c4.3,2,9.4,1.4,13-1.6l193.2-160c2.8-2.3,4.4-5.8,4.4-9.4c0-3.7-1.6-7.1-4.5-9.4l-193.1-159.4
			c-3.7-3-8.7-3.7-13-1.6c-4.3,2-7,6.3-7,11.1v83.7c-221.5,8-220.6,176-220.2,257.4v9.7c0,5.6,3.7,10.4,9.1,11.8
			c1,0.3,2.1,0.4,3.1,0.4c4.3,0,8.4-2.3,10.7-6.2c65.4-115.2,119.2-120.8,197.3-121.1v83.5
			C246.354,336.209,249.055,340.509,253.354,342.609z M50.855,319.909c1.1-35.5,5.8-77.8,25.2-113.6c30.8-57,90.5-85.2,182.6-86.1
			c6.7-0.1,12.1-5.5,12.1-12.2v-69.8l161.7,133.4l-161.6,133.8v-69.7c0-3.2-1.3-6.4-3.6-8.7s-5.4-3.6-8.7-3.6
			C172.855,223.509,113.755,228.609,50.855,319.909z"/>
		<path d="M461.555,477.809v-226c0-6.8-5.5-12.3-12.3-12.3s-12.3,5.5-12.3,12.3v213.7h-386.3v-41.6c0-6.8-5.5-12.3-12.3-12.3
			s-12.3,5.5-12.3,12.3v53.8c0,6.8,5.5,12.3,12.3,12.3h410.9C456.055,490.009,461.555,484.509,461.555,477.809z"/>
	</g>
</g>
<g>
</g>
<g>
</g>
<g>
</g>
<g>
</g>
<g>
</g>
<g>
</g>
<g>
</g>
<g>
</g>
<g>
</g>
<g>
</g>
<g>
</g>
<g>
</g>
<g>
</g>
<g>
</g>
<g>
</g>
</svg>
