<?xml version="1.0" encoding="iso-8859-1"?>
<!-- Generator: Adobe Illustrator 19.0.0, SVG Export Plug-In . SVG Version: 6.00 Build 0)  -->
<svg version="1.1" id="Capa_1" xmlns="http://www.w3.org/2000/svg" xmlns:xlink="http://www.w3.org/1999/xlink" x="0px" y="0px"
	 viewBox="0 0 490 490" style="enable-background:new 0 0 490 490;" xml:space="preserve">
<g>
	<g>
		<path d="M304.5,245c0-32.8-26.7-59.5-59.5-59.5s-59.5,26.7-59.5,59.5s26.7,59.5,59.5,59.5S304.5,277.8,304.5,245z M245,280
			c-19.3,0-35-15.7-35-35s15.7-35,35-35s35,15.7,35,35S264.3,280,245,280z"/>
		<path d="M59.5,185.5C26.7,185.5,0,212.2,0,245s26.7,59.5,59.5,59.5S119,277.8,119,245S92.3,185.5,59.5,185.5z M59.5,280
			c-19.3,0-35-15.7-35-35s15.7-35,35-35s35,15.7,35,35S78.8,280,59.5,280z"/>
		<path d="M430.5,185.5c-32.8,0-59.5,26.7-59.5,59.5s26.7,59.5,59.5,59.5S490,277.8,490,245S463.3,185.5,430.5,185.5z M430.5,280
			c-19.3,0-35-15.7-35-35s15.7-35,35-35s35,15.7,35,35S449.8,280,430.5,280z"/>
	</g>
</g>
<g>
</g>
<g>
</g>
<g>
</g>
<g>
</g>
<g>
</g>
<g>
</g>
<g>
</g>
<g>
</g>
<g>
</g>
<g>
</g>
<g>
</g>
<g>
</g>
<g>
</g>
<g>
</g>
<g>
</g>
</svg>
