<?xml version="1.0" encoding="iso-8859-1"?>
<!-- Generator: Adobe Illustrator 19.0.0, SVG Export Plug-In . SVG Version: 6.00 Build 0)  -->
<svg version="1.1" id="Capa_1" xmlns="http://www.w3.org/2000/svg" xmlns:xlink="http://www.w3.org/1999/xlink" x="0px" y="0px"
	 viewBox="0 0 489.7 489.7" style="enable-background:new 0 0 489.7 489.7;" xml:space="preserve">
<g>
	<g>
		<path d="M244.9,28.6C109.8,28.6,0,125.6,0,244.8c0,47.1,17.6,93.2,49.7,130.6c-6.7,14.8-16.5,26.5-29.3,34.8
			c-6.6,4.3-9.8,12.1-8.1,19.8c1.7,7.6,7.8,13.2,15.6,14.3c7.7,1.1,15.6,1.6,23.3,1.6c24.8,0,47.4-5.3,67.3-15.8
			c38.1,20.3,81.6,31,126.3,31c135.1,0,244.9-97,244.9-216.2S380,28.6,244.9,28.6z M244.9,436.5c-42.9,0-84.5-10.8-120.3-31.2
			c-1.9-1.1-4-1.6-6.1-1.6c-2.2,0-4.4,0.6-6.3,1.7c-18.8,11.3-41.4,16.7-66,15.8c12.9-11.6,22.7-26.3,29.3-44
			c1.6-4.3,0.6-9.2-2.5-12.6c-31.8-34.3-48.5-75.7-48.5-119.8c0-105.7,98.9-191.7,220.4-191.7s220.4,86,220.4,191.7
			S366.4,436.5,244.9,436.5z"/>
		<circle cx="244.8" cy="244.8" r="15.7"/>
		<circle cx="177.2" cy="244.8" r="15.7"/>
		<circle cx="312.4" cy="244.8" r="15.7"/>
	</g>
</g>
<g>
</g>
<g>
</g>
<g>
</g>
<g>
</g>
<g>
</g>
<g>
</g>
<g>
</g>
<g>
</g>
<g>
</g>
<g>
</g>
<g>
</g>
<g>
</g>
<g>
</g>
<g>
</g>
<g>
</g>
</svg>
