<?xml version="1.0" encoding="iso-8859-1"?>
<!-- Generator: Adobe Illustrator 19.0.0, SVG Export Plug-In . SVG Version: 6.00 Build 0)  -->
<svg version="1.1" id="Capa_1" xmlns="http://www.w3.org/2000/svg" xmlns:xlink="http://www.w3.org/1999/xlink" x="0px" y="0px"
	 viewBox="0 0 490.4 490.4" style="enable-background:new 0 0 490.4 490.4;" xml:space="preserve">
<g>
	<path d="M245.2,490.4c65.5,0,127.1-25.5,173.4-71.8s71.8-107.9,71.8-173.4s-25.5-127.1-71.8-173.4S310.7,0,245.2,0
		S118.1,25.5,71.8,71.8S0,179.7,0,245.2s25.5,127.1,71.8,173.4S179.7,490.4,245.2,490.4z M401.3,401.3
		c-41.7,41.7-97.1,64.6-156.1,64.6c-54.8,0-106.6-19.9-147.1-56.2L409.7,98.1c36.3,40.5,56.2,92.3,56.2,147.1
		C465.9,304.2,442.9,359.6,401.3,401.3z M89.1,89.1c41.7-41.6,97.1-64.6,156.1-64.6c54.9,0,106.6,19.9,147.1,56.2L80.7,392.3
		c-36.3-40.5-56.2-92.2-56.2-147.1C24.5,186.2,47.5,130.8,89.1,89.1z"/>
</g>
<g>
</g>
<g>
</g>
<g>
</g>
<g>
</g>
<g>
</g>
<g>
</g>
<g>
</g>
<g>
</g>
<g>
</g>
<g>
</g>
<g>
</g>
<g>
</g>
<g>
</g>
<g>
</g>
<g>
</g>
</svg>
