<?xml version="1.0" encoding="iso-8859-1"?>
<!-- Generator: Adobe Illustrator 19.0.0, SVG Export Plug-In . SVG Version: 6.00 Build 0)  -->
<svg version="1.1" id="Capa_1" xmlns="http://www.w3.org/2000/svg" xmlns:xlink="http://www.w3.org/1999/xlink" x="0px" y="0px"
	 viewBox="0 0 489.4 489.4" style="enable-background:new 0 0 489.4 489.4;" xml:space="preserve">
<g>
	<g>
		<path d="M224.4,369.35H451c21.2,0,38.4-17.2,38.4-38.4V77.45c0-21.2-17.2-38.4-38.4-38.4H38.4C17.2,39.05,0,56.25,0,77.45v253.6
			c0,21.2,17.2,38.4,38.4,38.4h17.9v61.9c0,7.7,4.6,14.6,11.7,17.5c2.4,1,4.8,1.5,7.3,1.5c4.9,0,9.8-1.9,13.4-5.6l78.9-79
			c4.8-4.8,4.8-12.5,0-17.3s-12.5-4.8-17.3,0l-69.5,69.5v-60.9c0-6.8-5.5-12.3-12.3-12.3H38.4c-7.7,0-13.9-6.2-13.9-13.9V77.45
			c0-7.7,6.2-13.9,13.9-13.9H451c7.7,0,13.9,6.2,13.9,13.9v253.6c0,7.7-6.2,13.9-13.9,13.9H224.4c-6.8,0-12.3,5.5-12.3,12.3
			S217.6,369.35,224.4,369.35z"/>
		<path d="M88.1,152.95h313.2c6.8,0,12.3-5.5,12.3-12.3s-5.5-12.3-12.3-12.3H88.1c-6.8,0-12.3,5.5-12.3,12.3
			S81.3,152.95,88.1,152.95z"/>
		<path d="M88.1,218.85h313.2c6.8,0,12.3-5.5,12.3-12.3s-5.5-12.3-12.3-12.3H88.1c-6.8,0-12.3,5.5-12.3,12.3
			S81.3,218.85,88.1,218.85z"/>
		<path d="M88.1,284.75h156.6c6.8,0,12.3-5.5,12.3-12.3s-5.5-12.3-12.3-12.3H88.1c-6.8,0-12.3,5.5-12.3,12.3
			S81.3,284.75,88.1,284.75z"/>
	</g>
</g>
<g>
</g>
<g>
</g>
<g>
</g>
<g>
</g>
<g>
</g>
<g>
</g>
<g>
</g>
<g>
</g>
<g>
</g>
<g>
</g>
<g>
</g>
<g>
</g>
<g>
</g>
<g>
</g>
<g>
</g>
</svg>
