<?xml version="1.0" encoding="iso-8859-1"?>
<!-- Generator: Adobe Illustrator 19.0.0, SVG Export Plug-In . SVG Version: 6.00 Build 0)  -->
<svg version="1.1" id="Capa_1" xmlns="http://www.w3.org/2000/svg" xmlns:xlink="http://www.w3.org/1999/xlink" x="0px" y="0px"
	 viewBox="0 0 489.7 489.7" style="enable-background:new 0 0 489.7 489.7;" xml:space="preserve">
<g>
	<g>
		<path d="M60.6,461.95c0,6.8,5.5,12.3,12.3,12.3s12.3-5.5,12.3-12.3v-301.6c34.4-5.9,60.8-35.8,60.8-71.9c0-40.3-32.8-73-73-73
			s-73,32.7-73,73c0,36.1,26.3,66,60.8,71.9v301.6H60.6z M24.3,88.45c0-26.7,21.8-48.5,48.5-48.5s48.5,21.8,48.5,48.5
			s-21.8,48.5-48.5,48.5S24.3,115.25,24.3,88.45z"/>
		<path d="M317.1,401.25c0-36.1-26.3-66-60.8-71.9V27.75c0-6.8-5.5-12.3-12.3-12.3s-12.3,5.5-12.3,12.3v301.6
			c-34.4,5.9-60.8,35.8-60.8,71.9c0,40.3,32.8,73,73,73S317.1,441.45,317.1,401.25z M195.6,401.25c0-26.7,21.8-48.5,48.5-48.5
			s48.5,21.8,48.5,48.5s-21.8,48.5-48.5,48.5S195.6,427.95,195.6,401.25z"/>
		<path d="M416.6,474.25c6.8,0,12.3-5.5,12.3-12.3v-301.6c34.4-5.9,60.8-35.8,60.8-71.9c0-40.3-32.8-73-73-73s-73,32.7-73,73
			c0,36.1,26.3,66,60.8,71.9v301.6C404.3,468.75,409.8,474.25,416.6,474.25z M368.1,88.45c0-26.7,21.8-48.5,48.5-48.5
			s48.5,21.8,48.5,48.5s-21.8,48.5-48.5,48.5C389.8,136.95,368.1,115.25,368.1,88.45z"/>
	</g>
</g>
<g>
</g>
<g>
</g>
<g>
</g>
<g>
</g>
<g>
</g>
<g>
</g>
<g>
</g>
<g>
</g>
<g>
</g>
<g>
</g>
<g>
</g>
<g>
</g>
<g>
</g>
<g>
</g>
<g>
</g>
</svg>
