<?xml version="1.0" encoding="iso-8859-1"?>
<!-- Generator: Adobe Illustrator 19.0.0, SVG Export Plug-In . SVG Version: 6.00 Build 0)  -->
<svg xmlns="http://www.w3.org/2000/svg" xmlns:xlink="http://www.w3.org/1999/xlink" version="1.1" id="Capa_1" x="0px" y="0px" viewBox="0 0 512 512" style="enable-background:new 0 0 512 512;" xml:space="preserve" width="512px" height="512px">
<polygon points="128,128 0,256 192,256 240,240 " fill="#null"/>
<polygon points="128,128 240,240 256,192 256,128 " fill="#null"/>
<polygon points="128,384 256,512 256,320 240,272 " fill="#null"/>
<polygon points="128,384 240,272 192,256 128,256 " fill="#null"/>
<polygon points="384,384 512,256 320,256 272,272 " fill="#null"/>
<polygon points="384,384 272,272 256,320 256,384 " fill="#null"/>
<polygon points="384,128 256,0 256,192 272,240 " fill="#null"/>
<polygon points="384,128 272,240 320,256 384,256 " fill="#null"/>
<g>
</g>
<g>
</g>
<g>
</g>
<g>
</g>
<g>
</g>
<g>
</g>
<g>
</g>
<g>
</g>
<g>
</g>
<g>
</g>
<g>
</g>
<g>
</g>
<g>
</g>
<g>
</g>
<g>
</g>
</svg>
