<?xml version="1.0" encoding="iso-8859-1"?>
<!-- Generator: Adobe Illustrator 19.0.0, SVG Export Plug-In . SVG Version: 6.00 Build 0)  -->
<svg version="1.1" id="Capa_1" xmlns="http://www.w3.org/2000/svg" xmlns:xlink="http://www.w3.org/1999/xlink" x="0px" y="0px"
	 viewBox="0 0 512.001 512.001" style="enable-background:new 0 0 512.001 512.001;" xml:space="preserve">
<linearGradient id="SVGID_1_" gradientUnits="userSpaceOnUse" x1="250.5962" y1="-20.7821" x2="250.5962" y2="513.2429" gradientTransform="matrix(1.0667 0 0 -1.0667 3.2668 557.5342)">
	<stop  offset="0" style="stop-color:#FFFFFF"/>
	<stop  offset="1" style="stop-color:#E8EFEE"/>
</linearGradient>
<circle style="fill:url(#SVGID_1_);" cx="270.569" cy="256" r="224.672"/>
<linearGradient id="SVGID_2_" gradientUnits="userSpaceOnUse" x1="250.5962" y1="466.0139" x2="250.5962" y2="79.0579" gradientTransform="matrix(1.0667 0 0 -1.0667 3.2668 557.5342)">
	<stop  offset="0" style="stop-color:#FFFFFF"/>
	<stop  offset="1" style="stop-color:#E8EFEE"/>
</linearGradient>
<circle style="fill:url(#SVGID_2_);" cx="270.569" cy="256" r="218.485"/>
<radialGradient id="SVGID_3_" cx="232.8462" cy="308.9779" r="244.78" gradientTransform="matrix(1.0667 0 0 -1.0667 3.2668 557.5342)" gradientUnits="userSpaceOnUse">
	<stop  offset="1.000000e-004" style="stop-color:#FFFFFF;stop-opacity:0"/>
	<stop  offset="0.482" style="stop-color:#FDFDFD;stop-opacity:0.482"/>
	<stop  offset="0.656" style="stop-color:#F6F7F7;stop-opacity:0.655"/>
	<stop  offset="0.779" style="stop-color:#EBEDEC;stop-opacity:0.779"/>
	<stop  offset="0.879" style="stop-color:#DADDDD;stop-opacity:0.879"/>
	<stop  offset="0.964" style="stop-color:#C4CAC9;stop-opacity:0.964"/>
	<stop  offset="1" style="stop-color:#B8BFBE"/>
</radialGradient>
<path style="fill:url(#SVGID_3_);" d="M347.357,51.4c8.97,23.889,13.889,49.761,13.889,76.784
	c0,120.669-97.821,218.49-218.49,218.49c-27.023,0-52.895-4.919-76.784-13.889C97.055,415.569,176.927,474.49,270.572,474.49
	c120.669,0,218.49-97.821,218.49-218.49C489.061,162.356,430.142,82.484,347.357,51.4z"/>
<g>
	
		<radialGradient id="SVGID_4_" cx="177.1962" cy="373.8379" r="269.2" gradientTransform="matrix(1.0667 0 0 -1.0667 3.2668 557.5342)" gradientUnits="userSpaceOnUse">
		<stop  offset="0" style="stop-color:#00A6F9"/>
		<stop  offset="0.253" style="stop-color:#00A0F7"/>
		<stop  offset="0.575" style="stop-color:#0091F0"/>
		<stop  offset="0.932" style="stop-color:#0077E4"/>
		<stop  offset="1" style="stop-color:#0071E2"/>
	</radialGradient>
	<path style="fill:url(#SVGID_4_);" d="M185.982,133.495c3.135-10.175,6.679-19.815,10.618-28.807
		c7.853-17.93,16.959-32.513,26.969-43.463c-36.029,8.663-68.265,27.058-93.772,52.256
		C146.407,121.866,165.38,128.599,185.982,133.495z"/>
	
		<radialGradient id="SVGID_5_" cx="177.1962" cy="373.8379" r="269.2" gradientTransform="matrix(1.0667 0 0 -1.0667 3.2668 557.5342)" gradientUnits="userSpaceOnUse">
		<stop  offset="0" style="stop-color:#00A6F9"/>
		<stop  offset="0.253" style="stop-color:#00A0F7"/>
		<stop  offset="0.575" style="stop-color:#0091F0"/>
		<stop  offset="0.932" style="stop-color:#0077E4"/>
		<stop  offset="1" style="stop-color:#0071E2"/>
	</radialGradient>
	<path style="fill:url(#SVGID_5_);" d="M411.345,113.48c-9.045,4.566-18.79,8.652-29.124,12.192
		c-8.63,2.982-17.676,5.594-27.06,7.822c-3.135-10.171-6.675-19.817-10.619-28.807c-7.855-17.927-16.955-32.511-26.961-43.457
		c0.087,0.022,0.175,0.044,0.262,0.065C353.762,69.979,385.902,88.343,411.345,113.48z"/>
	
		<radialGradient id="SVGID_6_" cx="177.1962" cy="373.8379" r="269.2" gradientTransform="matrix(1.0667 0 0 -1.0667 3.2668 557.5342)" gradientUnits="userSpaceOnUse">
		<stop  offset="0" style="stop-color:#00A6F9"/>
		<stop  offset="0.253" style="stop-color:#00A0F7"/>
		<stop  offset="0.575" style="stop-color:#0091F0"/>
		<stop  offset="0.932" style="stop-color:#0077E4"/>
		<stop  offset="1" style="stop-color:#0071E2"/>
	</radialGradient>
	<path style="fill:url(#SVGID_6_);" d="M351.188,266.405H189.956c0.682,31.237,4.433,61.114,10.914,87.799
		c22.166-3.936,45.643-5.991,69.701-5.991c24.059,0,47.535,2.055,69.701,5.991C346.755,327.518,350.506,297.642,351.188,266.405z"/>
	
		<radialGradient id="SVGID_7_" cx="177.1962" cy="373.8379" r="269.2" gradientTransform="matrix(1.0667 0 0 -1.0667 3.2668 557.5342)" gradientUnits="userSpaceOnUse">
		<stop  offset="0" style="stop-color:#00A6F9"/>
		<stop  offset="0.253" style="stop-color:#00A0F7"/>
		<stop  offset="0.575" style="stop-color:#0091F0"/>
		<stop  offset="0.932" style="stop-color:#0077E4"/>
		<stop  offset="1" style="stop-color:#0071E2"/>
	</radialGradient>
	<path style="fill:url(#SVGID_7_);" d="M340.274,157.797c-22.166,3.936-45.643,5.991-69.701,5.991
		c-24.059,0-47.535-2.055-69.701-5.991c-6.481,26.686-10.233,56.562-10.914,87.799h161.231
		C350.506,214.359,346.755,184.483,340.274,157.797z"/>
	
		<radialGradient id="SVGID_8_" cx="177.1962" cy="373.8379" r="269.2" gradientTransform="matrix(1.0667 0 0 -1.0667 3.2668 557.5342)" gradientUnits="userSpaceOnUse">
		<stop  offset="0" style="stop-color:#00A6F9"/>
		<stop  offset="0.253" style="stop-color:#00A0F7"/>
		<stop  offset="0.575" style="stop-color:#0091F0"/>
		<stop  offset="0.932" style="stop-color:#0077E4"/>
		<stop  offset="1" style="stop-color:#0071E2"/>
	</radialGradient>
	<path style="fill:url(#SVGID_8_);" d="M206.472,374.328c2.748,8.683,5.811,16.926,9.188,24.637
		c15.23,34.773,35.245,54.717,54.912,54.717c19.667,0,39.682-19.943,54.912-54.717c3.377-7.711,6.441-15.954,9.188-24.637
		c-20.366-3.49-41.946-5.307-64.1-5.307S226.837,370.838,206.472,374.328z"/>
	
		<radialGradient id="SVGID_9_" cx="177.1962" cy="373.8379" r="269.2" gradientTransform="matrix(1.0667 0 0 -1.0667 3.2668 557.5342)" gradientUnits="userSpaceOnUse">
		<stop  offset="0" style="stop-color:#00A6F9"/>
		<stop  offset="0.253" style="stop-color:#00A0F7"/>
		<stop  offset="0.575" style="stop-color:#0091F0"/>
		<stop  offset="0.932" style="stop-color:#0077E4"/>
		<stop  offset="1" style="stop-color:#0071E2"/>
	</radialGradient>
	<path style="fill:url(#SVGID_9_);" d="M334.672,137.673c-2.748-8.683-5.811-16.926-9.188-24.637
		c-15.23-34.773-35.245-54.717-54.912-54.717s-39.682,19.943-54.912,54.717c-3.377,7.711-6.441,15.954-9.188,24.637
		c20.366,3.49,41.946,5.307,64.1,5.307S314.306,141.163,334.672,137.673z"/>
	
		<radialGradient id="SVGID_10_" cx="177.1962" cy="373.8379" r="269.2" gradientTransform="matrix(1.0667 0 0 -1.0667 3.2668 557.5342)" gradientUnits="userSpaceOnUse">
		<stop  offset="0" style="stop-color:#00A6F9"/>
		<stop  offset="0.253" style="stop-color:#00A0F7"/>
		<stop  offset="0.575" style="stop-color:#0091F0"/>
		<stop  offset="0.932" style="stop-color:#0077E4"/>
		<stop  offset="1" style="stop-color:#0071E2"/>
	</radialGradient>
	<path style="fill:url(#SVGID_10_);" d="M180.5,153.562c-3.047,12.716-5.539,26.087-7.385,39.94
		c-2.251,16.769-3.595,34.237-3.977,52.099H70.501c2.174-42.387,17.511-81.278,42.016-112.697c0.917-1.18,1.857-2.349,2.797-3.507
		c1.115,0.601,2.207,1.202,3.354,1.792C136.922,140.605,157.843,148.121,180.5,153.562z"/>
	
		<radialGradient id="SVGID_11_" cx="177.1962" cy="373.8379" r="269.2" gradientTransform="matrix(1.0667 0 0 -1.0667 3.2668 557.5342)" gradientUnits="userSpaceOnUse">
		<stop  offset="0" style="stop-color:#00A6F9"/>
		<stop  offset="0.253" style="stop-color:#00A0F7"/>
		<stop  offset="0.575" style="stop-color:#0091F0"/>
		<stop  offset="0.932" style="stop-color:#0077E4"/>
		<stop  offset="1" style="stop-color:#0071E2"/>
	</radialGradient>
	<path style="fill:url(#SVGID_11_);" d="M355.161,378.506c-3.135,10.175-6.679,19.815-10.618,28.807
		c-7.853,17.93-16.959,32.513-26.969,43.463c36.029-8.663,68.265-27.058,93.772-52.256
		C394.737,390.135,375.764,383.402,355.161,378.506z"/>
	
		<radialGradient id="SVGID_12_" cx="177.1962" cy="373.8379" r="269.2" gradientTransform="matrix(1.0667 0 0 -1.0667 3.2668 557.5342)" gradientUnits="userSpaceOnUse">
		<stop  offset="0" style="stop-color:#00A6F9"/>
		<stop  offset="0.253" style="stop-color:#00A0F7"/>
		<stop  offset="0.575" style="stop-color:#0091F0"/>
		<stop  offset="0.932" style="stop-color:#0077E4"/>
		<stop  offset="1" style="stop-color:#0071E2"/>
	</radialGradient>
	<path style="fill:url(#SVGID_12_);" d="M422.481,131.187c-18.26,9.421-39.175,16.938-61.842,22.373
		c6.77,28.138,10.675,59.443,11.361,92.036h98.641c-2.25-43.973-18.685-84.195-44.81-116.195
		C424.722,129.999,423.619,130.6,422.481,131.187z"/>
	
		<radialGradient id="SVGID_13_" cx="177.1962" cy="373.8379" r="269.2" gradientTransform="matrix(1.0667 0 0 -1.0667 3.2668 557.5342)" gradientUnits="userSpaceOnUse">
		<stop  offset="0" style="stop-color:#00A6F9"/>
		<stop  offset="0.253" style="stop-color:#00A0F7"/>
		<stop  offset="0.575" style="stop-color:#0091F0"/>
		<stop  offset="0.932" style="stop-color:#0077E4"/>
		<stop  offset="1" style="stop-color:#0071E2"/>
	</radialGradient>
	<path style="fill:url(#SVGID_13_);" d="M372.001,266.405c-0.685,32.592-4.59,63.899-11.361,92.036
		c22.667,5.436,43.582,12.953,61.842,22.373c1.137,0.587,2.24,1.188,3.35,1.787c26.125-32.001,42.56-72.223,44.81-116.195h-98.641
		V266.405z"/>
	
		<radialGradient id="SVGID_14_" cx="177.1962" cy="373.8379" r="269.2" gradientTransform="matrix(1.0667 0 0 -1.0667 3.2668 557.5342)" gradientUnits="userSpaceOnUse">
		<stop  offset="0" style="stop-color:#00A6F9"/>
		<stop  offset="0.253" style="stop-color:#00A0F7"/>
		<stop  offset="0.575" style="stop-color:#0091F0"/>
		<stop  offset="0.932" style="stop-color:#0077E4"/>
		<stop  offset="1" style="stop-color:#0071E2"/>
	</radialGradient>
	<path style="fill:url(#SVGID_14_);" d="M180.5,358.439c-9.69,2.326-19.053,5.025-28.032,8.095
		c-12.028,4.118-23.345,8.881-33.801,14.278c-1.147,0.59-2.239,1.19-3.354,1.792c-22.067-27.027-37.219-59.909-42.748-95.971
		c-1.027-6.642-1.715-13.393-2.065-20.233h98.637C169.827,298.999,173.737,330.309,180.5,358.439z"/>
	
		<radialGradient id="SVGID_15_" cx="177.1962" cy="373.8379" r="269.2" gradientTransform="matrix(1.0667 0 0 -1.0667 3.2668 557.5342)" gradientUnits="userSpaceOnUse">
		<stop  offset="0" style="stop-color:#00A6F9"/>
		<stop  offset="0.253" style="stop-color:#00A0F7"/>
		<stop  offset="0.575" style="stop-color:#0091F0"/>
		<stop  offset="0.932" style="stop-color:#0077E4"/>
		<stop  offset="1" style="stop-color:#0071E2"/>
	</radialGradient>
	<path style="fill:url(#SVGID_15_);" d="M196.599,407.313c-3.938-8.992-7.483-18.631-10.618-28.807
		c-20.602,4.896-39.575,11.628-56.187,20.015c25.508,25.198,57.743,43.591,93.772,52.256
		C213.558,439.827,204.452,425.243,196.599,407.313z"/>
</g>
<linearGradient id="SVGID_16_" gradientUnits="userSpaceOnUse" x1="183.6824" y1="339.0142" x2="67.0625" y2="455.6342" gradientTransform="matrix(1.0667 0 0 -1.0667 3.2668 557.5342)">
	<stop  offset="1.000000e-004" style="stop-color:#008BF2;stop-opacity:0"/>
	<stop  offset="1" style="stop-color:#0046E2"/>
</linearGradient>
<path style="fill:url(#SVGID_16_);" d="M180.5,153.562c-3.047,12.716-5.539,26.087-7.385,39.94l-60.598-60.598
	c0.917-1.18,1.857-2.349,2.797-3.507c1.115,0.601,2.207,1.202,3.354,1.792C136.922,140.605,157.843,148.121,180.5,153.562z"/>
<linearGradient id="SVGID_17_" gradientUnits="userSpaceOnUse" x1="162.1089" y1="211.5807" x2="58.7619" y2="314.9306" gradientTransform="matrix(1.0667 0 0 -1.0667 3.2668 557.5342)">
	<stop  offset="1.000000e-004" style="stop-color:#008BF2;stop-opacity:0"/>
	<stop  offset="1" style="stop-color:#0046E2"/>
</linearGradient>
<path style="fill:url(#SVGID_17_);" d="M180.5,358.439c-9.69,2.326-19.053,5.025-28.032,8.095l-79.902-79.902
	c-1.027-6.642-1.715-13.393-2.065-20.233h98.637C169.827,298.999,173.737,330.309,180.5,358.439z"/>
<linearGradient id="SVGID_18_" gradientUnits="userSpaceOnUse" x1="354.5844" y1="389.2061" x2="283.9944" y2="459.7921" gradientTransform="matrix(1.0667 0 0 -1.0667 3.2668 557.5342)">
	<stop  offset="1.000000e-004" style="stop-color:#008BF2;stop-opacity:0"/>
	<stop  offset="1" style="stop-color:#0046E2"/>
</linearGradient>
<path style="fill:url(#SVGID_18_);" d="M382.22,125.672c-8.63,2.982-17.676,5.594-27.06,7.822
	c-3.135-10.171-6.675-19.817-10.619-28.807c-7.855-17.927-16.955-32.511-26.961-43.457c0.087,0.022,0.175,0.044,0.262,0.065
	L382.22,125.672z"/>
<linearGradient id="SVGID_19_" gradientUnits="userSpaceOnUse" x1="457.1371" y1="266.6388" x2="363.6871" y2="360.0888" gradientTransform="matrix(1.0667 0 0 -1.0667 3.2668 557.5342)">
	<stop  offset="0" style="stop-color:#C2CECE;stop-opacity:0"/>
	<stop  offset="0.179" style="stop-color:#AFBCBC;stop-opacity:0.179"/>
	<stop  offset="1" style="stop-color:#5B6A6A"/>
</linearGradient>
<path style="fill:url(#SVGID_19_);" d="M489.061,256c0-33.41-7.504-65.063-20.912-93.377c-8.909,8.097-21.555,18.171-39.326,30.324
	c-16.448,11.252-28.441,23.381-49.057,35.181c-5.826,3.334-7.815,10.784-4.46,16.598c0.816,1.414,1.875,2.596,3.091,3.535
	l93.278,93.278C482.865,315.268,489.061,286.359,489.061,256z"/>
<linearGradient id="SVGID_20_" gradientUnits="userSpaceOnUse" x1="467.4851" y1="208.8768" x2="376.2051" y2="300.1469" gradientTransform="matrix(1.0667 0 0 -1.0667 3.2668 557.5342)">
	<stop  offset="1.000000e-004" style="stop-color:#008BF2;stop-opacity:0"/>
	<stop  offset="1" style="stop-color:#0046E2"/>
</linearGradient>
<path style="fill:url(#SVGID_20_);" d="M396.544,266.408h74.092c-1.093,21.471-5.574,42.031-12.91,61.183L396.544,266.408z"/>
<linearGradient id="SVGID_21_" gradientUnits="userSpaceOnUse" x1="465.0662" y1="246.3979" x2="383.9662" y2="327.4979" gradientTransform="matrix(1.0667 0 0 -1.0667 3.2668 557.5342)">
	<stop  offset="1.000000e-004" style="stop-color:#008BF2;stop-opacity:0"/>
	<stop  offset="1" style="stop-color:#0046E2"/>
</linearGradient>
<path style="fill:url(#SVGID_21_);" d="M470.636,245.593h-94.773c-0.206-0.279-0.388-0.559-0.559-0.862
	c-3.351-5.817-1.36-13.274,4.457-16.602c20.621-11.804,32.62-23.924,49.062-35.182c9.776-6.691,17.998-12.739,24.908-18.204
	C463.446,196.579,469.348,220.478,470.636,245.593z"/>
<linearGradient id="SVGID_22_" gradientUnits="userSpaceOnUse" x1="412.099" y1="396.2879" x2="412.099" y2="315.6979" gradientTransform="matrix(1.0667 0 0 -1.0667 3.2668 557.5342)">
	<stop  offset="0" style="stop-color:#FFCF95"/>
	<stop  offset="0.427" style="stop-color:#FFC954"/>
	<stop  offset="1" style="stop-color:#FFC200"/>
</linearGradient>
<path style="fill:url(#SVGID_22_);" d="M509.97,128.9c-7.53-16.298-30.773-15.727-38.412-15.545
	c-7.347,0.182-15.812,1.044-25.332,2.587c5.708,7.129,10.978,14.609,15.775,22.406c8.355-0.862,14.439-0.886,18.678-0.498
	c3.716,0.327,5.611,4.578,3.461,7.627c-2.295,3.243-5.89,7.481-11.269,12.715c-8.962,8.743-22.88,20.281-44.047,34.756
	c-16.448,11.252-28.441,23.381-49.057,35.181c-5.826,3.334-7.815,10.784-4.46,16.598c3.351,5.808,10.767,7.787,16.586,4.455
	c24.051-13.767,38.906-27.846,57.443-40.908c13.213-9.302,24.41-18.046,33.482-26.134c5.477-4.882,10.189-9.521,14.099-13.905
	c4.129-4.614,15.084-16.88,15.084-30.033C511.999,135.117,511.404,131.996,509.97,128.9z"/>
<linearGradient id="SVGID_23_" gradientUnits="userSpaceOnUse" x1="320.4254" y1="114.9671" x2="191.1154" y2="244.2771" gradientTransform="matrix(1.0667 0 0 -1.0667 3.2668 557.5342)">
	<stop  offset="0" style="stop-color:#C2CECE;stop-opacity:0"/>
	<stop  offset="0.179" style="stop-color:#AFBCBC;stop-opacity:0.179"/>
	<stop  offset="1" style="stop-color:#5B6A6A"/>
</linearGradient>
<path style="fill:url(#SVGID_23_);" d="M466.554,352.656c-35.667,72.186-110.027,121.83-195.983,121.83
	c-77.735,0-145.985-40.598-184.689-101.744c-4.542-7.14-8.659-14.548-12.338-22.224c6.813-1.372,14.451-3.121,23.001-5.343
	c1.033-0.267,2.065-0.534,3.121-0.814c1.227-0.316,2.465-0.656,3.728-0.996c47.824-13.03,107.513-35.606,168.076-63.599
	c8.89-4.117,17.682-8.283,26.329-12.496l-12.606-25.066c-2.562-5.065,1.786-10.869,7.372-9.849l64.607,11.828
	c0.206,0.036,0.425,0.085,0.62,0.146c0.206,0.049,0.401,0.122,0.595,0.194c0.182,0.061,0.352,0.133,0.523,0.219
	c0.145,0.073,0.291,0.146,0.437,0.23c0.109,0.061,0.219,0.133,0.327,0.207c0.122,0.073,0.243,0.158,0.352,0.243
	c0.231,0.158,0.449,0.34,0.656,0.559c0.097,0.085,0.194,0.194,0.291,0.291c0.316,0.34,0.595,0.704,0.837,1.105
	c0.207,0.34,0.377,0.692,0.523,1.057L466.554,352.656z"/>
<linearGradient id="SVGID_24_" gradientUnits="userSpaceOnUse" x1="377.1364" y1="110.3582" x2="222.3765" y2="265.1181" gradientTransform="matrix(1.0667 0 0 -1.0667 3.2668 557.5342)">
	<stop  offset="1.000000e-004" style="stop-color:#008BF2;stop-opacity:0"/>
	<stop  offset="1" style="stop-color:#0046E2"/>
</linearGradient>
<path style="fill:url(#SVGID_24_);" d="M270.572,348.212c24.058,0,47.533,2.052,69.696,5.987
	c6.484-26.681,10.238-56.556,10.917-87.79h-53.823l0.437,0.862c-8.646,4.214-17.439,8.38-26.329,12.496
	c-26.511,12.254-52.851,23.462-78.099,33.299c1.822,14.331,4.336,28.114,7.505,41.133
	C223.04,350.264,246.514,348.212,270.572,348.212z"/>
<linearGradient id="SVGID_25_" gradientUnits="userSpaceOnUse" x1="337.5144" y1="70.7461" x2="182.7544" y2="225.5061" gradientTransform="matrix(1.0667 0 0 -1.0667 3.2668 557.5342)">
	<stop  offset="1.000000e-004" style="stop-color:#008BF2;stop-opacity:0"/>
	<stop  offset="1" style="stop-color:#0046E2"/>
</linearGradient>
<path style="fill:url(#SVGID_25_);" d="M334.669,374.333c-20.366-3.498-41.946-5.307-64.097-5.307s-43.731,1.809-64.097,5.307
	c2.745,8.671,5.805,16.917,9.181,24.628c15.229,34.781,35.254,54.722,54.916,54.722s39.687-19.94,54.916-54.722
	C328.864,391.251,331.924,383.004,334.669,374.333z"/>
<linearGradient id="SVGID_26_" gradientUnits="userSpaceOnUse" x1="364.986" y1="98.2076" x2="210.226" y2="252.9677" gradientTransform="matrix(1.0667 0 0 -1.0667 3.2668 557.5342)">
	<stop  offset="1.000000e-004" style="stop-color:#008BF2;stop-opacity:0"/>
	<stop  offset="1" style="stop-color:#0046E2"/>
</linearGradient>
<path style="fill:url(#SVGID_26_);" d="M344.542,407.317c-7.845,17.925-16.954,32.51-26.972,43.465
	c36.032-8.671,68.275-27.057,93.777-52.257c-16.613-8.391-35.582-15.12-56.191-20.014
	C352.023,388.676,348.477,398.318,344.542,407.317z"/>
<linearGradient id="SVGID_27_" gradientUnits="userSpaceOnUse" x1="420.415" y1="153.6367" x2="265.655" y2="308.3967" gradientTransform="matrix(1.0667 0 0 -1.0667 3.2668 557.5342)">
	<stop  offset="1.000000e-004" style="stop-color:#008BF2;stop-opacity:0"/>
	<stop  offset="1" style="stop-color:#0046E2"/>
</linearGradient>
<path style="fill:url(#SVGID_27_);" d="M380.307,266.408h-8.306c-0.681,32.595-4.591,63.89-11.355,92.029
	c22.661,5.441,43.573,12.958,61.839,22.382c1.13,0.583,2.235,1.178,3.351,1.786c10.796-13.225,19.929-27.859,27.093-43.573
	L380.307,266.408z"/>
<linearGradient id="SVGID_28_" gradientUnits="userSpaceOnUse" x1="285.0962" y1="18.3179" x2="130.3362" y2="173.0779" gradientTransform="matrix(1.0667 0 0 -1.0667 3.2668 557.5342)">
	<stop  offset="1.000000e-004" style="stop-color:#008BF2;stop-opacity:0"/>
	<stop  offset="1" style="stop-color:#0046E2"/>
</linearGradient>
<path style="fill:url(#SVGID_28_);" d="M185.988,378.511c-20.609,4.894-39.578,11.622-56.191,20.014
	c25.503,25.199,57.745,43.585,93.777,52.257c-10.019-10.954-19.127-25.539-26.972-43.465
	C192.666,398.318,189.121,388.676,185.988,378.511z"/>
<linearGradient id="SVGID_29_" gradientUnits="userSpaceOnUse" x1="296.0442" y1="29.2759" x2="141.2842" y2="184.0359" gradientTransform="matrix(1.0667 0 0 -1.0667 3.2668 557.5342)">
	<stop  offset="1.000000e-004" style="stop-color:#008BF2;stop-opacity:0"/>
	<stop  offset="1" style="stop-color:#0046E2"/>
</linearGradient>
<path style="fill:url(#SVGID_29_);" d="M180.499,358.437c-1.057-4.409-2.052-8.89-2.951-13.443
	c-1.615-7.918-2.988-16.043-4.141-24.362c-25.054,9.23-48.71,16.929-70.011,22.734c-4.068,1.105-7.942,2.113-11.646,3.024
	c3.813,7.554,8.1,14.841,12.825,21.798c3.364,4.967,6.946,9.776,10.735,14.415c1.117-0.595,2.21-1.202,3.364-1.786
	c10.444-5.404,21.762-10.164,33.797-14.282C161.444,363.465,170.807,360.768,180.499,358.437z"/>
<linearGradient id="SVGID_30_" gradientUnits="userSpaceOnUse" x1="111.295" y1="158.1867" x2="-1.498" y2="270.9767" gradientTransform="matrix(1.0667 0 0 -1.0667 3.2668 557.5342)">
	<stop  offset="0" style="stop-color:#C2CECE;stop-opacity:0"/>
	<stop  offset="0.179" style="stop-color:#AFBCBC;stop-opacity:0.179"/>
	<stop  offset="1" style="stop-color:#5B6A6A"/>
</linearGradient>
<path style="fill:url(#SVGID_30_);" d="M55.181,320.039L55.181,320.039c4.14,13.943,9.593,27.318,16.222,39.985
	c17.106-3.194,33.952-9.647,33.952-9.647l-56.206-56.206C50.657,302.981,52.679,311.612,55.181,320.039z"/>
<linearGradient id="SVGID_31_" gradientUnits="userSpaceOnUse" x1="102.466" y1="181.3477" x2="59.586" y2="224.2277" gradientTransform="matrix(1.0667 0 0 -1.0667 3.2668 557.5342)">
	<stop  offset="1.000000e-004" style="stop-color:#008BF2;stop-opacity:0"/>
	<stop  offset="1" style="stop-color:#0046E2"/>
</linearGradient>
<path style="fill:url(#SVGID_31_);" d="M95.677,353.72c5.852-1.878,9.678-3.343,9.678-3.343l-21.367-21.367
	C87.331,337.548,91.24,345.8,95.677,353.72z"/>
<linearGradient id="SVGID_32_" gradientUnits="userSpaceOnUse" x1="145.1789" y1="287.8391" x2="186.9289" y2="191.4391" gradientTransform="matrix(1.0667 0 0 -1.0667 3.2668 557.5342)">
	<stop  offset="0" style="stop-color:#FFCF95"/>
	<stop  offset="0.427" style="stop-color:#FFC954"/>
	<stop  offset="1" style="stop-color:#FFC200"/>
</linearGradient>
<path style="fill:url(#SVGID_32_);" d="M357.173,244.181l-64.607-11.824c-5.585-1.022-9.932,4.783-7.378,9.854l12.617,25.058
	c-8.658,4.213-17.441,8.386-26.334,12.498c-60.563,27.993-120.252,50.569-168.076,63.599c-14.245,3.874-26.195,6.558-36.141,8.343
	c-17.718,3.206-29.122,3.619-35.886,3.024c-3.692-0.327-5.696-4.53-3.558-7.554c4.068-5.793,12.277-14.719,27.422-26.948
	c-2.538-8.489-4.578-17.196-6.096-26.074c-14.585,11.051-26.001,21.167-34.052,30.178c-5.101,5.696-20.585,23.038-13.055,39.336
	c6.558,14.209,25.077,15.594,34.781,15.594c1.421,0,2.659-0.025,3.631-0.049c10.699-0.255,23.754-1.967,38.995-5.101
	c6.995-1.434,14.451-3.17,22.346-5.198c50.46-12.982,114.337-36.81,179.879-67.109c9.152-4.231,18.179-8.519,27.068-12.846
	l12.091,24.014c2.554,5.071,9.805,5.037,12.31-0.059l28.976-58.943C364.116,249.883,361.658,245.001,357.173,244.181z"/>
<linearGradient id="SVGID_33_" gradientUnits="userSpaceOnUse" x1="25.333" y1="223.0877" x2="38.996" y2="209.9877" gradientTransform="matrix(1.0667 0 0 -1.0667 3.2668 557.5342)">
	<stop  offset="0" style="stop-color:#FFC200;stop-opacity:0"/>
	<stop  offset="0.203" style="stop-color:#FFBB00;stop-opacity:0.203"/>
	<stop  offset="0.499" style="stop-color:#FFA700;stop-opacity:0.499"/>
	<stop  offset="0.852" style="stop-color:#FF8800;stop-opacity:0.852"/>
	<stop  offset="1" style="stop-color:#FF7800"/>
</linearGradient>
<path style="fill:url(#SVGID_33_);" d="M29.459,354.166l0.009-0.004c-2.402-1.309-3.39-4.532-1.658-6.982
	c4.068-5.793,12.277-14.719,27.422-26.948c-1.795-6.004-3.328-12.124-4.617-18.331c-10.119,8.817-32.221,28.692-33.856,35.466
	C14.633,346.171,29.459,354.166,29.459,354.166z"/>
<g>
</g>
<g>
</g>
<g>
</g>
<g>
</g>
<g>
</g>
<g>
</g>
<g>
</g>
<g>
</g>
<g>
</g>
<g>
</g>
<g>
</g>
<g>
</g>
<g>
</g>
<g>
</g>
<g>
</g>
</svg>
