<?xml version="1.0" encoding="iso-8859-1"?>
<!-- Generator: Adobe Illustrator 19.0.0, SVG Export Plug-In . SVG Version: 6.00 Build 0)  -->
<svg version="1.1" id="Capa_1" xmlns="http://www.w3.org/2000/svg" xmlns:xlink="http://www.w3.org/1999/xlink" x="0px" y="0px"
	 viewBox="0 0 512 512" style="enable-background:new 0 0 512 512;" xml:space="preserve">
<path style="fill:#17ACE8;" d="M467,75.977H135c-8.401,0-15,6.599-15,15v300c0,8.399,6.599,15,15,15h175.699l85.801,85.499
	c9.3,9.6,25.499,3.001,25.499-10.499v-75h45c24.901,0,45-20.101,45-45v-240C512,96.077,491.901,75.977,467,75.977z"/>
<path style="fill:#1689FC;" d="M512,120.977v240c0,24.899-20.099,45-45,45h-45v75c0,13.5-16.199,20.099-25.499,10.499L310.7,405.977
	H212v-330h255C491.901,75.977,512,96.077,512,120.977z"/>
<path style="fill:#FEDB41;" d="M377,15.977H45c-24.901,0-45,20.099-45,45v240c0,24.899,20.099,45,45,45h45v75
	c0,13.5,16.199,20.099,25.499,10.499l87.801-85.499H377c24.901,0,45-20.101,45-45v-240C422,36.077,401.901,15.977,377,15.977z"/>
<path style="fill:#FFCC33;" d="M422,60.977v240c0,24.899-20.099,45-45,45H212v-330h165C401.901,15.977,422,36.077,422,60.977z"/>
<g>
	<path style="fill:#994C0F;" d="M287,135.977H75c-19.799,0-19.799-30,0-30h212C306.799,105.977,306.799,135.977,287,135.977z"/>
	<path style="fill:#994C0F;" d="M347,195.977H75c-8.401,0-15-6.601-15-15c0-8.401,6.599-15,15-15h272
		C366.799,165.977,366.799,195.977,347,195.977z"/>
	<path style="fill:#994C0F;" d="M227,255.977H75c-19.799,0-19.799-30,0-30h152C246.799,225.977,246.799,255.977,227,255.977z"/>
</g>
<g>
	<path style="fill:#713708;" d="M227,255.977h-15v-30h15C246.799,225.977,246.799,255.977,227,255.977z"/>
	<path style="fill:#713708;" d="M287,135.977h-75v-30h75C306.799,105.977,306.799,135.977,287,135.977z"/>
	<path style="fill:#713708;" d="M347,195.977H212v-30h135C366.799,165.977,366.799,195.977,347,195.977z"/>
</g>
<g>
</g>
<g>
</g>
<g>
</g>
<g>
</g>
<g>
</g>
<g>
</g>
<g>
</g>
<g>
</g>
<g>
</g>
<g>
</g>
<g>
</g>
<g>
</g>
<g>
</g>
<g>
</g>
<g>
</g>
</svg>
