<?xml version="1.0" encoding="iso-8859-1"?>
<!-- Generator: Adobe Illustrator 19.0.0, SVG Export Plug-In . SVG Version: 6.00 Build 0)  -->
<svg version="1.1" id="Capa_1" xmlns="http://www.w3.org/2000/svg" xmlns:xlink="http://www.w3.org/1999/xlink" x="0px" y="0px"
	 viewBox="0 0 512 512" style="enable-background:new 0 0 512 512;" xml:space="preserve">
<path style="fill:#64B5F6;" d="M464,128.05h-16v125.8c0,54.1-43.6,98.1-97.2,98.1H128v48c0,26.5,21.5,48,48,48h234.4l75.6,60.5
	c2.9,2.3,6.5,3.5,10,3.5c2.3,0,4.7-0.5,6.9-1.6c5.5-2.7,9.1-8.3,9.1-14.4v-319.9C512,149.55,490.5,128.05,464,128.05z"/>
<path style="fill:#2196F3;" d="M352,0.05H64c-35.3,0-64,28.7-64,64v320c0,6.2,3.6,11.8,9.2,14.5c2.1,1,4.5,1.5,6.8,1.5
	c3.7,0,7.3-1.2,10.2-3.7l91.6-76.3H352c35.3,0,64-28.7,64-64v-192C416,28.75,387.3,0.05,352,0.05z"/>
<g>
	<path style="fill:#FAFAFA;" d="M304,96.05H112c-8.8,0-16,7.2-16,16s7.2,16,16,16h192c8.8,0,16-7.2,16-16S312.8,96.05,304,96.05z"/>
	<path style="fill:#FAFAFA;" d="M240,160.05H112c-8.8,0-16,7.2-16,16s7.2,16,16,16h128c8.8,0,16-7.2,16-16S248.8,160.05,240,160.05z
		"/>
</g>
<g>
</g>
<g>
</g>
<g>
</g>
<g>
</g>
<g>
</g>
<g>
</g>
<g>
</g>
<g>
</g>
<g>
</g>
<g>
</g>
<g>
</g>
<g>
</g>
<g>
</g>
<g>
</g>
<g>
</g>
</svg>
