<?xml version="1.0" encoding="iso-8859-1"?>
<!-- Generator: Adobe Illustrator 19.0.0, SVG Export Plug-In . SVG Version: 6.00 Build 0)  -->
<svg xmlns="http://www.w3.org/2000/svg" xmlns:xlink="http://www.w3.org/1999/xlink" version="1.1" id="Capa_1" x="0px" y="0px" viewBox="0 0 468.293 468.293" style="enable-background:new 0 0 468.293 468.293;" xml:space="preserve" width="512px" height="512px">
<path d="M375.754,114.501c-5.744,0-11.273,0.908-16.469,2.564c3.098-9.011,4.861-18.642,4.861-28.704  C364.147,39.561,324.586,0,275.785,0c-32.281,0-60.437,17.367-75.855,43.212c-10.67-6.435-23.129-10.204-36.498-10.204  c-39.139,0-70.867,31.728-70.867,70.867c0,3.636,0.36,7.182,0.889,10.671c-0.299-0.005-0.589-0.045-0.889-0.045  c-29.945,0-54.22,24.275-54.22,54.219c0,29.945,24.275,54.22,54.22,54.22h283.19c29.945,0,54.22-24.275,54.22-54.22  C429.974,138.776,405.699,114.501,375.754,114.501z" fill="#null"/>
<path d="M375.754,114.501c-5.744,0-11.273,0.909-16.469,2.565c3.098-9.011,4.861-18.642,4.861-28.704  C364.147,39.561,324.586,0,275.785,0c-29.172,0-54.939,14.209-71.018,36.014c15.621-14.91,36.723-24.11,60.029-24.11  c48.161,0,87.203,39.043,87.203,87.204c0,9.93-1.74,19.435-4.797,28.327c5.128-1.634,10.584-2.531,16.253-2.531  c29.553,0,53.509,23.957,53.509,53.509c0,15.111-6.288,28.732-16.36,38.462c17.433-9.014,29.37-27.174,29.37-48.154  C429.974,138.776,405.699,114.501,375.754,114.501z" fill="#null"/>
<polygon points="241.693,283.996 241.693,222.943 226.63,222.943 226.63,283.996 76.004,283.993   76.004,360.119 91.066,360.119 91.066,299.056 226.63,299.059 226.63,360.119 241.693,360.119 241.693,299.059 377.257,299.062   377.257,360.119 392.319,360.119 392.319,283.999 " fill="#null"/>
<circle cx="234.159" cy="291.528" r="30.545" fill="#null"/>
<g>
	<rect x="35.334" y="345.65" width="96.4" height="122.643" fill="#null"/>
	<rect x="185.956" y="345.65" width="96.4" height="122.643" fill="#null"/>
	<rect x="336.559" y="345.65" width="96.4" height="122.643" fill="#null"/>
</g>
<g>
	<rect x="353.542" y="430.392" width="62.439" height="12.488" fill="#null"/>
	<rect x="353.542" y="400.734" width="62.439" height="12.488" fill="#null"/>
	<rect x="353.542" y="371.056" width="62.439" height="12.488" fill="#null"/>
	<rect x="202.939" y="430.392" width="62.439" height="12.488" fill="#null"/>
	<rect x="202.939" y="400.734" width="62.439" height="12.488" fill="#null"/>
	<rect x="202.939" y="371.056" width="62.439" height="12.488" fill="#null"/>
	<rect x="52.311" y="430.392" width="62.439" height="12.488" fill="#null"/>
	<rect x="52.311" y="400.734" width="62.439" height="12.488" fill="#null"/>
	<rect x="52.311" y="371.056" width="62.439" height="12.488" fill="#null"/>
</g>
<g>
</g>
<g>
</g>
<g>
</g>
<g>
</g>
<g>
</g>
<g>
</g>
<g>
</g>
<g>
</g>
<g>
</g>
<g>
</g>
<g>
</g>
<g>
</g>
<g>
</g>
<g>
</g>
<g>
</g>
</svg>
