<svg id="Flat" height="512" viewBox="0 0 512 512" width="512" xmlns="http://www.w3.org/2000/svg"><path d="m320 248a72 72 0 1 0 -10.6-143.216 104.026 104.026 0 0 0 -202.792 0 72 72 0 1 0 -10.608 143.216z" fill="#c3c6c7"/><rect fill="#f7cc38" height="224" rx="32" width="272" x="216" y="216"/><path d="m216 456a32 32 0 0 0 32 32h208a32 32 0 0 0 32-32v-160a32 32 0 0 0 -32-32h-112v-64a32 32 0 0 0 -32-32h-64a32 32 0 0 0 -32 32z" fill="#fbe36a"/><circle cx="160" cy="320" fill="#6ed2f0" r="104"/><g fill="#e9eef2"><path d="m231.048 281.344a8 8 0 0 0 -11.093 2.218l-4.92 7.38a64 64 0 0 0 -118.261-6.375 8 8 0 1 0 14.452 6.866 48 48 0 0 1 88.25 3.529l-8.428-5.618a8 8 0 0 0 -8.875 13.312l24 16a8 8 0 0 0 11.094-2.218l16-24a8 8 0 0 0 -2.219-11.094z"/><path d="m219.433 344.773a8 8 0 0 0 -10.659 3.794 48 48 0 0 1 -88.25-3.529l8.428 5.618a8 8 0 0 0 8.875-13.312l-24-16a8 8 0 0 0 -11.094 2.218l-16 24a8 8 0 1 0 13.312 8.876l4.92-7.38a64 64 0 0 0 118.261 6.375 8 8 0 0 0 -3.793-10.66z"/></g></svg>