<svg id="Flat" height="512" viewBox="0 0 512 512" width="512" xmlns="http://www.w3.org/2000/svg"><rect fill="#f7cc38" height="320" rx="32" width="464" x="24" y="96"/><path d="m456 144h-224v-64a32 32 0 0 0 -32-32h-144a32 32 0 0 0 -32 32v352a32 32 0 0 0 32 32h400a32 32 0 0 0 32-32v-256a32 32 0 0 0 -32-32z" fill="#fbe36a"/><path d="m344 320v-32h-34.332a55.685 55.685 0 0 0 -4.4-10.641l24.271-24.271-22.627-22.627-24.271 24.271a55.685 55.685 0 0 0 -10.641-4.4v-26.332h-32v26.332a55.685 55.685 0 0 0 -10.641 4.4l-24.271-24.271-22.627 22.627 24.271 24.271a55.685 55.685 0 0 0 -4.4 10.641h-34.332v32h34.332a55.685 55.685 0 0 0 4.4 10.641l-24.271 24.271 22.627 22.627 24.271-24.271a55.685 55.685 0 0 0 10.641 4.4v26.332h32v-26.332a55.685 55.685 0 0 0 10.641-4.4l24.271 24.271 22.627-22.627-24.271-24.271a55.685 55.685 0 0 0 4.4-10.641zm-88 8a24 24 0 1 1 24-24 24 24 0 0 1 -24 24z" fill="#f79539"/></svg>