<svg id="Flat" height="512" viewBox="0 0 512 512" width="512" xmlns="http://www.w3.org/2000/svg"><rect fill="#f7cc38" height="240" rx="32" width="288" x="24" y="72"/><path d="m24 312a32 32 0 0 0 32 32h224a32 32 0 0 0 32-32v-160a32 32 0 0 0 -32-32h-128v-64a32 32 0 0 0 -32-32h-64a32 32 0 0 0 -32 32z" fill="#fbe36a"/><path d="m488 344q0 4.02-.22 8a143.359 143.359 0 0 1 -38.58 90.3c-.38.43-.79.86-1.2 1.29-3.28 3.43-6.74 6.7-10.34 9.8a143.916 143.916 0 0 1 -187.32 0c-3.6-3.1-7.06-6.37-10.34-9.8-.41-.43-.82-.86-1.2-1.29a143.359 143.359 0 0 1 -38.58-90.3q-.225-3.975-.22-8t.22-8a143.359 143.359 0 0 1 38.58-90.3c.38-.43.79-.86 1.2-1.29 3.28-3.43 6.74-6.7 10.34-9.8a143.916 143.916 0 0 1 187.32 0c3.6 3.1 7.06 6.37 10.34 9.8.41.43.82.86 1.2 1.29a143.359 143.359 0 0 1 38.58 90.3q.225 3.975.22 8z" fill="#6ed2f0"/><path d="m487.78 352q.225-3.975.22-8t-.22-8h-55.89a268.91 268.91 0 0 0 -10.57-69.04 152.615 152.615 0 0 0 27.88-21.26c-.38-.43-.79-.86-1.2-1.29-3.28-3.43-6.74-6.7-10.34-9.8a137.564 137.564 0 0 1 -21.61 16.81q-3.255-8.445-7.13-16.14a127.628 127.628 0 0 0 -18.25-27.54 144.573 144.573 0 0 0 -93.34 0 127.628 127.628 0 0 0 -18.25 27.54q-3.87 7.68-7.13 16.14a137.564 137.564 0 0 1 -21.61-16.81c-3.6 3.1-7.06 6.37-10.34 9.8-.41.43-.82.86-1.2 1.29a152.615 152.615 0 0 0 27.88 21.26 268.91 268.91 0 0 0 -10.57 69.04h-55.89q-.225 3.975-.22 8t.22 8h55.89a268.91 268.91 0 0 0 10.57 69.04 152.615 152.615 0 0 0 -27.88 21.26c.38.43.79.86 1.2 1.29 3.28 3.43 6.74 6.7 10.34 9.8a137.564 137.564 0 0 1 21.61-16.81q3.255 8.445 7.13 16.14a127.628 127.628 0 0 0 18.25 27.54 144.573 144.573 0 0 0 93.34 0 127.628 127.628 0 0 0 18.25-27.54q3.87-7.68 7.13-16.14a137.564 137.564 0 0 1 21.61 16.81c3.6-3.1 7.06-6.37 10.34-9.8.41-.43.82-.86 1.2-1.29a152.275 152.275 0 0 0 -27.88-21.26 268.91 268.91 0 0 0 10.57-69.04zm-151.78 135.04c-15.79-3.75-30.99-18.41-42.63-41.52a164.763 164.763 0 0 1 -7.24-16.69 134.74 134.74 0 0 1 49.87-12.59zm0-86.83a150.795 150.795 0 0 0 -54.87 13.28 254.218 254.218 0 0 1 -9.01-61.49h63.88zm0-64.21h-63.88a254.218 254.218 0 0 1 9.01-61.49 150.795 150.795 0 0 0 54.87 13.28zm0-64.24a134.74 134.74 0 0 1 -49.87-12.59 164.763 164.763 0 0 1 7.24-16.69c11.64-23.11 26.84-37.77 42.63-41.52zm16-70.8c15.79 3.75 30.99 18.41 42.63 41.52a164.763 164.763 0 0 1 7.24 16.69 134.74 134.74 0 0 1 -49.87 12.59zm42.63 244.56c-11.64 23.11-26.84 37.77-42.63 41.52v-70.8a134.74 134.74 0 0 1 49.87 12.59 164.763 164.763 0 0 1 -7.24 16.69zm12.24-32.03a150.795 150.795 0 0 0 -54.87-13.28v-48.21h63.88a254.218 254.218 0 0 1 -9.01 61.49zm-54.87-77.49v-48.21a150.795 150.795 0 0 0 54.87-13.28 254.218 254.218 0 0 1 9.01 61.49z" fill="#3cb4d7"/></svg>