<svg id="Flat" height="512" viewBox="0 0 512 512" width="512" xmlns="http://www.w3.org/2000/svg"><rect fill="#f7cc38" height="272" rx="32" width="336" x="152" y="72"/><path d="m152 360a32 32 0 0 0 32 32h272a32 32 0 0 0 32-32v-208a32 32 0 0 0 -32-32h-160v-64a32 32 0 0 0 -32-32h-80a32 32 0 0 0 -32 32z" fill="#fbdc44"/><rect fill="#f7cc38" height="272" rx="32" width="336" x="24" y="168"/><path d="m24 456a32 32 0 0 0 32 32h272a32 32 0 0 0 32-32v-208a32 32 0 0 0 -32-32h-160v-64a32 32 0 0 0 -32-32h-80a32 32 0 0 0 -32 32z" fill="#fbe36a"/></svg>