<svg id="Flat" height="512" viewBox="0 0 512 512" width="512" xmlns="http://www.w3.org/2000/svg"><rect fill="#f7cc38" height="288" rx="32" width="384" x="24" y="88"/><path d="m24 392a32 32 0 0 0 32 32h320a32 32 0 0 0 32-32v-224a32 32 0 0 0 -32-32h-176v-64a32 32 0 0 0 -32-32h-112a32 32 0 0 0 -32 32z" fill="#fbe36a"/><path d="m462.545 472h-157.09l-17.455-192h192z" fill="#c3c6c7"/><g fill="#9aa3a8"><path d="m424.009 432c-.223 0-.447-.009-.674-.028a8 8 0 0 1 -7.307-8.637l8-96a8 8 0 0 1 15.944 1.33l-8 96a8 8 0 0 1 -7.963 7.335z"/><path d="m384 432a8 8 0 0 1 -8-8v-96a8 8 0 0 1 16 0v96a8 8 0 0 1 -8 8z"/><path d="m343.991 432a8 8 0 0 1 -7.963-7.335l-8-96a8 8 0 0 1 15.944-1.33l8 96a8 8 0 0 1 -7.307 8.637q-.341.028-.674.028z"/><path d="m280 248h208v32h-208z"/></g></svg>