<svg id="Flat" height="512" viewBox="0 0 512 512" width="512" xmlns="http://www.w3.org/2000/svg"><rect fill="#f7cc38" height="288" rx="32" width="384" x="24" y="88"/><path d="m24 392a32 32 0 0 0 32 32h320a32 32 0 0 0 32-32v-224a32 32 0 0 0 -32-32h-176v-64a32 32 0 0 0 -32-32h-112a32 32 0 0 0 -32 32z" fill="#fbe36a"/><path d="m342.863 479.974a55.974 55.974 0 0 1 -39.6-95.572l124.453-124.451a40 40 0 1 1 56.568 56.569l-113.137 113.137a24 24 0 0 1 -33.941-33.941l90.51-90.51a8 8 0 0 1 11.313 11.314l-90.509 90.509a8 8 0 1 0 11.313 11.314l113.138-113.137a24 24 0 1 0 -33.942-33.941l-124.45 124.451a40 40 0 1 0 56.568 56.568l101.824-101.823a8 8 0 0 1 11.313 11.313l-101.823 101.826a55.827 55.827 0 0 1 -39.598 16.374z" fill="#f79539"/></svg>