<svg id="Flat" height="512" viewBox="0 0 512 512" width="512" xmlns="http://www.w3.org/2000/svg"><rect fill="#f7cc38" height="288" rx="32" width="384" x="24" y="88"/><path d="m24 392a32 32 0 0 0 32 32h320a32 32 0 0 0 32-32v-224a32 32 0 0 0 -32-32h-176v-64a32 32 0 0 0 -32-32h-112a32 32 0 0 0 -32 32z" fill="#fbe36a"/><path d="m416 240h-16a40.045 40.045 0 0 0 -40 40v48a8 8 0 0 0 8 8h8v-56a24.027 24.027 0 0 1 24-24h16a24.027 24.027 0 0 1 24 24v56h8a8 8 0 0 0 8-8v-48a40.045 40.045 0 0 0 -40-40z" fill="#9aa3a8"/><path d="m328 328h160v144h-160z" fill="#eb423f"/><path d="m432 392a24 24 0 1 0 -32 22.624v9.376a8 8 0 0 0 16 0v-9.376a24.039 24.039 0 0 0 16-22.624zm-24 8a8 8 0 1 1 8-8 8.009 8.009 0 0 1 -8 8z" fill="#e9eef2"/></svg>