<svg id="Flat" height="512" viewBox="0 0 512 512" width="512" xmlns="http://www.w3.org/2000/svg"><rect fill="#f7cc38" height="320" rx="32" width="464" x="24" y="96"/><path d="m456 144h-224v-64a32 32 0 0 0 -32-32h-144a32 32 0 0 0 -32 32v352a32 32 0 0 0 32 32h400a32 32 0 0 0 32-32v-256a32 32 0 0 0 -32-32z" fill="#fbe36a"/><path d="m341.241 227.017a7.983 7.983 0 0 0 -6.373-1.876l-112 16a8 8 0 0 0 -6.868 7.92v75.231a32 32 0 1 0 16 27.708v-96l96-13.714v66.007a32 32 0 1 0 16 27.707v-102.939a8 8 0 0 0 -2.759-6.044z" fill="#f79539"/></svg>