<svg id="Flat" height="512" viewBox="0 0 512 512" width="512" xmlns="http://www.w3.org/2000/svg"><rect fill="#f7cc38" height="320" rx="32" width="464" x="24" y="96"/><path d="m456 144h-224v-64a32 32 0 0 0 -32-32h-144a32 32 0 0 0 -32 32v352a32 32 0 0 0 32 32h400a32 32 0 0 0 32-32v-256a32 32 0 0 0 -32-32z" fill="#fbe36a"/><path d="m159.995 224h208.005v160h-208.005z" fill="#f7cc38"/><path d="m352 224v40h-40v-40h-112v40h-40v-40h-16v160h16v-40h40v40h112v-40h40v40h16v-160zm-152 104h-40v-48h40zm112 0v-48h40v48z" fill="#f79539"/></svg>