<?xml version="1.0" encoding="iso-8859-1"?>
<!-- Generator: Adobe Illustrator 19.0.0, SVG Export Plug-In . SVG Version: 6.00 Build 0)  -->
<svg version="1.1" id="Capa_1" xmlns="http://www.w3.org/2000/svg" xmlns:xlink="http://www.w3.org/1999/xlink" x="0px" y="0px"
	 viewBox="0 0 490.4 490.4" style="enable-background:new 0 0 490.4 490.4;" xml:space="preserve">
<g>
	<g>
		<path d="M245.2,490.4c135.2,0,245.2-110,245.2-245.2S380.4,0,245.2,0S0,110,0,245.2S110,490.4,245.2,490.4z M245.2,24.5
			c121.7,0,220.7,99,220.7,220.7s-99,220.7-220.7,220.7s-220.7-99-220.7-220.7S123.5,24.5,245.2,24.5z"/>
		<path d="M180.3,310.1c2.4,2.4,5.5,3.6,8.7,3.6s6.3-1.2,8.7-3.6l47.6-47.6l47.6,47.6c2.4,2.4,5.5,3.6,8.7,3.6s6.3-1.2,8.7-3.6
			c4.8-4.8,4.8-12.5,0-17.3l-47.8-47.6l47.6-47.6c4.8-4.8,4.8-12.5,0-17.3s-12.5-4.8-17.3,0l-47.6,47.6l-47.6-47.6
			c-4.8-4.8-12.5-4.8-17.3,0s-4.8,12.5,0,17.3l47.6,47.6l-47.6,47.6C175.5,297.6,175.5,305.3,180.3,310.1z"/>
	</g>
</g>
<g>
</g>
<g>
</g>
<g>
</g>
<g>
</g>
<g>
</g>
<g>
</g>
<g>
</g>
<g>
</g>
<g>
</g>
<g>
</g>
<g>
</g>
<g>
</g>
<g>
</g>
<g>
</g>
<g>
</g>
</svg>
