<?xml version="1.0" encoding="iso-8859-1"?>
<!-- Generator: Adobe Illustrator 19.0.0, SVG Export Plug-In . SVG Version: 6.00 Build 0)  -->
<svg version="1.1" id="Capa_1" xmlns="http://www.w3.org/2000/svg" xmlns:xlink="http://www.w3.org/1999/xlink" x="0px" y="0px"
	 viewBox="0 0 490.2 490.2" style="enable-background:new 0 0 490.2 490.2;" xml:space="preserve">
<g>
	<g>
		<path d="M108.9,0.3H32.2C14.5,0.3,0.1,14.7,0.1,32.4v76.7c0,17.7,14.4,32.1,32.1,32.1h76.7c17.7,0,32.1-14.4,32.1-32.1V32.4
			C141,14.7,126.6,0.3,108.9,0.3z M116.5,109.1c0,4.2-3.4,7.6-7.6,7.6H32.2c-4.2,0-7.6-3.4-7.6-7.6V32.4c0-4.2,3.4-7.6,7.6-7.6h76.7
			c4.2,0,7.6,3.4,7.6,7.6C116.5,32.4,116.5,109.1,116.5,109.1z"/>
		<path d="M0,283.5c0,17.7,14.4,32.1,32.1,32.1h76.7c17.7,0,32.1-14.4,32.1-32.1v-76.7c0-17.7-14.4-32.1-32.1-32.1H32.2
			c-17.7,0-32.1,14.4-32.1,32.1v76.7H0z M24.5,206.7c0-4.2,3.4-7.6,7.6-7.6h76.7c4.2,0,7.6,3.4,7.6,7.6v76.7c0,4.2-3.4,7.6-7.6,7.6
			H32.2c-4.2,0-7.6-3.4-7.6-7.6v-76.7H24.5z"/>
		<path d="M0,457.8c0,17.7,14.4,32.1,32.1,32.1h76.7c17.7,0,32.1-14.4,32.1-32.1v-76.7c0-17.7-14.4-32.1-32.1-32.1H32.2
			c-17.7,0-32.1,14.4-32.1,32.1v76.7H0z M24.5,381.1c0-4.2,3.4-7.6,7.6-7.6h76.7c4.2,0,7.6,3.4,7.6,7.6v76.7c0,4.2-3.4,7.6-7.6,7.6
			H32.2c-4.2,0-7.6-3.4-7.6-7.6v-76.7H24.5z"/>
		<path d="M202.4,83h275.5c6.8,0,12.3-5.5,12.3-12.3s-5.5-12.3-12.3-12.3H202.4c-6.8,0-12.3,5.5-12.3,12.3S195.6,83,202.4,83z"/>
		<path d="M202.4,257.4h275.5c6.8,0,12.3-5.5,12.3-12.3s-5.5-12.3-12.3-12.3H202.4c-6.8,0-12.3,5.5-12.3,12.3
			S195.6,257.4,202.4,257.4z"/>
		<path d="M202.4,431.7h275.5c6.8,0,12.3-5.5,12.3-12.3s-5.5-12.3-12.3-12.3H202.4c-6.8,0-12.3,5.5-12.3,12.3
			S195.6,431.7,202.4,431.7z"/>
	</g>
</g>
<g>
</g>
<g>
</g>
<g>
</g>
<g>
</g>
<g>
</g>
<g>
</g>
<g>
</g>
<g>
</g>
<g>
</g>
<g>
</g>
<g>
</g>
<g>
</g>
<g>
</g>
<g>
</g>
<g>
</g>
</svg>
