<?xml version="1.0" encoding="iso-8859-1"?>
<!-- Generator: Adobe Illustrator 19.0.0, SVG Export Plug-In . SVG Version: 6.00 Build 0)  -->
<svg version="1.1" id="Capa_1" xmlns="http://www.w3.org/2000/svg" xmlns:xlink="http://www.w3.org/1999/xlink" x="0px" y="0px"
	 viewBox="0 0 489.7 489.7" style="enable-background:new 0 0 489.7 489.7;" xml:space="preserve">
<g>
	<g>
		<path d="M140,36.55c-24.9,0-45.2,20.3-45.2,45.2v179.8c0,24.9,20.3,45.2,45.2,45.2h202.6l57.1,66.1c3.5,4,8.4,6.3,13.7,6.3
			c10,0,18.2-8.1,18.2-18.1v-54.2h12.9c24.9,0,45.2-20.3,45.2-45.2V81.75c0-24.9-20.3-45.2-45.2-45.2H140z M465.1,81.75v179.8
			c0,11.4-9.3,20.7-20.7,20.7h-25.1c-6.8,0-12.3,5.5-12.3,12.3v49.3l-49.6-57.3c-2.3-2.7-5.7-4.2-9.3-4.2H140
			c-11.4,0-20.7-9.3-20.7-20.7V81.75c0-11.4,9.3-20.7,20.7-20.7h304.4C455.8,61.05,465.1,70.35,465.1,81.75z"/>
		<path d="M69.9,451.95c2.1,0.8,4.3,1.2,6.4,1.2c5.1,0,10.1-2.2,13.6-6.3l57.1-66.1h178.4c6.8,0,12.3-5.5,12.3-12.3
			s-5.5-12.3-12.3-12.3h-184c-3.6,0-6.9,1.5-9.3,4.2l-49.5,57.5v-49.3c0-6.8-5.5-12.3-12.3-12.3H45.2c-11.4,0-20.7-9.3-20.7-20.7
			v-179.8c0-11.4,9.3-20.7,20.7-20.7c6.8,0,12.3-5.5,12.3-12.3c0-6.8-5.5-12.2-12.3-12.2c-24.9,0-45.2,20.3-45.2,45.2v179.8
			c0,24.9,20.3,45.2,45.2,45.2h12.9v54.2C58.1,442.65,62.7,449.35,69.9,451.95z"/>
		<circle cx="292.2" cy="175.95" r="14.6"/>
		<circle cx="243.3" cy="175.95" r="14.6"/>
		<circle cx="341.1" cy="175.95" r="14.6"/>
	</g>
</g>
<g>
</g>
<g>
</g>
<g>
</g>
<g>
</g>
<g>
</g>
<g>
</g>
<g>
</g>
<g>
</g>
<g>
</g>
<g>
</g>
<g>
</g>
<g>
</g>
<g>
</g>
<g>
</g>
<g>
</g>
</svg>
