<svg id="Capa_1" enable-background="new 0 0 512 512" height="512" viewBox="0 0 512 512" width="512" xmlns="http://www.w3.org/2000/svg"><g><g><path d="m501.594 242.449h-491.187c-5.748 0-10.407-4.659-10.407-10.407v-20.813c0-5.747 4.659-10.407 10.407-10.407h491.187c5.747 0 10.406 4.659 10.406 10.407v20.813c0 5.748-4.659 10.407-10.406 10.407z" fill="#ffe07d"/></g><g><path d="m501.594 200.823h-27.057c5.747 0 10.406 4.659 10.406 10.407v20.813c0 5.747-4.659 10.407-10.406 10.407h27.057c5.747 0 10.406-4.659 10.406-10.407v-20.813c0-5.748-4.659-10.407-10.406-10.407z" fill="#ffd064"/></g><g><path d="m27.577 242.449 32.541 192.52c2.539 15.017 15.558 26.016 30.782 26.016h330.313c15.183 0 28.16-10.916 30.762-25.871l33.488-192.666h-457.886zm157.659 158.179c0 5.744-4.662 10.406-10.407 10.406h-20.813c-5.744 0-10.407-4.662-10.407-10.406v-104.065c0-5.744 4.662-10.406 10.407-10.406h20.813c5.744 0 10.407 4.662 10.407 10.406zm91.577 0c0 5.744-4.662 10.406-10.407 10.406h-20.813c-5.744 0-10.407-4.662-10.407-10.406v-104.065c0-5.744 4.662-10.406 10.407-10.406h20.813c5.744 0 10.407 4.662 10.407 10.406zm91.577 0c0 5.744-4.662 10.406-10.406 10.406h-20.813c-5.744 0-10.407-4.662-10.407-10.406v-104.065c0-5.744 4.662-10.406 10.407-10.406h20.813c5.744 0 10.406 4.662 10.406 10.406z" fill="#dd636e"/></g><g><path d="m457.886 242.449-33.488 192.666c-2.602 14.954-15.579 25.871-30.762 25.871h27.577c15.183 0 28.16-10.916 30.762-25.871l33.488-192.666z" fill="#da4a54"/></g><g><path d="m330.784 230.717-72.691-149.798c-5.018-10.341-.703-22.793 9.639-27.811 10.341-5.018 22.793-.703 27.811 9.639l72.691 149.799c5.018 10.341.703 22.793-9.639 27.811-10.342 5.017-22.793.702-27.811-9.64z" fill="#e7a561"/></g><g><path d="m181.217 230.717 72.691-149.799c5.018-10.341.703-22.793-9.639-27.811-10.341-5.018-22.793-.703-27.811 9.639l-72.691 149.799c-5.018 10.341-.703 22.793 9.639 27.811 10.341 5.018 22.792.703 27.811-9.639z" fill="#e7a561"/></g><g><path d="m368.233 212.545-72.69-149.799c-4.992-10.287-17.337-14.603-27.646-9.709 4.133 1.958 7.657 5.274 9.809 9.709l72.691 149.799c5.018 10.341.703 22.793-9.639 27.811-.054.026-.111.044-.165.07 5.505 2.607 12.095 2.796 18.002-.07 10.341-5.018 14.656-17.47 9.638-27.811z" fill="#e49542"/></g><g><path d="m244.269 53.107c-5.907-2.866-12.497-2.677-18.002-.07.055.026.111.044.165.07 10.341 5.018 14.657 17.47 9.639 27.811l-72.691 149.799c-2.152 4.435-5.676 7.751-9.809 9.709 10.309 4.894 22.654.579 27.646-9.709l72.691-149.799c5.017-10.341.702-22.792-9.639-27.811z" fill="#e49542"/></g></g></svg>