<svg viewBox="0 -121 512 512" xmlns="http://www.w3.org/2000/svg"><g fill="#ff9f00"><path d="m180 0h30v270h-30zm0 0"/><path d="m120 90h30v180h-30zm0 0"/><path d="m60 60h30v210h-30zm0 0"/><path d="m0 150h30v120h-30zm0 0"/></g><path d="m413.5 90.300781c-18.898438-53.703125-70.300781-90.300781-128.5-90.300781-10.199219 0-20.398438 1.199219-30 3.601562-1.199219 0-2.402344.296876-3.601562.597657l-11.398438 3v262.800781h181c49.5 0 91-40.5 91-90 0-52.199219-46.601562-93.601562-98.5-89.699219zm0 0" fill="#ff7816"/></svg>