<svg id="Capa_1" enable-background="new 0 0 512 512" height="512" viewBox="0 0 512 512" width="512" xmlns="http://www.w3.org/2000/svg"><g><g fill="#f00044"><path d="m182.1 265.4c-40.6 0-73.4 32.8-72.8 73 .4 25.8 14.6 48.2 35.5 60.7-7.1-10.9-11.3-23.8-11.5-37.7-.6-40.2 32.2-73 72.8-73 8 0 15.7 1.3 22.9 3.6v-80.5c-7.5-1.1-15.2-1.7-22.9-1.7-.4 0-.7 0-1.1 0v59.2c-7.2-2.3-14.9-3.6-22.9-3.6z"/><path d="m357.6 24h-.6-20.8c6 30.1 22.9 56.3 46.5 74.1-15.5-20.5-24.9-46.1-25.1-74.1z"/><path d="m480 146.5c-7.9 0-15.5-.8-23-2.2v57.7c-27.2 0-53.6-5.3-78.4-15.9-16-6.8-30.9-15.5-44.6-26l.4 177.9c-.2 40-16 77.5-44.6 105.8-23.3 23-52.8 37.7-84.8 42.4-7.5 1.1-15.2 1.7-22.9 1.7-34.2 0-66.8-11.1-93.3-31.6 3 3.6 6.2 7.1 9.7 10.5 28.8 28.4 67 44.1 107.7 44.1 7.7 0 15.4-.6 22.9-1.7 32-4.7 61.5-19.4 84.8-42.4 28.6-28.3 44.4-65.8 44.6-105.8l-1.5-177.9c13.6 10.5 28.5 19.3 44.6 26 24.9 10.5 51.3 15.9 78.4 15.9"/></g><path d="m98.2 254.1c28.5-28.3 66.4-44 106.8-44.3v-21.3c-7.5-1.1-15.2-1.7-22.9-1.7-40.8 0-79.1 15.7-107.9 44.3-28.3 28.1-44.5 66.5-44.4 106.4 0 40.2 15.9 77.9 44.6 106.4 4.6 4.5 9.3 8.7 14.3 12.5-22.6-26.9-34.9-60.5-35-95.9.1-39.9 16.2-78.3 44.5-106.4z" fill="#08fff9"/><path d="m457 144.3v-21.4h-.2c-27.8 0-53.4-9.2-74-24.8 17.9 23.6 44.1 40.4 74.2 46.2z" fill="#08fff9"/><path d="m202 432.2c9.5.5 18.6-.8 27-3.5 29-9.5 49.9-36.5 49.9-68.3l.1-119v-217.4h57.2c-1.5-7.5-2.3-15.1-2.4-23h-78.8v217.3l-.1 119c0 31.8-20.9 58.8-49.9 68.3-8.4 2.8-17.5 4.1-27 3.5-12.1-.7-23.4-4.3-33.2-10.1 12.3 19 33.3 31.9 57.2 33.2z" fill="#08fff9"/><path d="m205 486.2c32-4.7 61.5-19.4 84.8-42.4 28.6-28.3 44.4-65.8 44.6-105.8l-.4-177.9c13.6 10.5 28.5 19.3 44.6 26 24.9 10.5 51.3 15.9 78.4 15.9v-57.7c-30.1-5.8-56.3-22.6-74.2-46.2-23.6-17.8-40.6-44-46.5-74.1h-57.3v217.3l-.1 119c0 31.8-20.9 58.8-49.9 68.3-8.4 2.8-17.5 4.1-27 3.5-24-1.3-44.9-14.2-57.2-33.1-20.9-12.4-35.1-34.9-35.5-60.7-.6-40.2 32.2-73 72.8-73 8 0 15.7 1.3 22.9 3.6v-59.2c-40.4.3-78.3 16-106.8 44.3-28.3 28.1-44.5 66.5-44.4 106.3 0 35.4 12.3 69 35 95.9 26.6 20.5 59.1 31.6 93.3 31.6 7.7.1 15.4-.5 22.9-1.6z"/></g></svg>