<?xml version="1.0" encoding="iso-8859-1"?>
<!-- Generator: Adobe Illustrator 19.0.0, SVG Export Plug-In . SVG Version: 6.00 Build 0)  -->
<svg version="1.1" id="Capa_1" xmlns="http://www.w3.org/2000/svg" xmlns:xlink="http://www.w3.org/1999/xlink" x="0px" y="0px"
	 viewBox="0 0 512 512" style="enable-background:new 0 0 512 512;" xml:space="preserve">
<g>
	<g>
		<circle cx="332.8" cy="166.4" r="128"/>
	</g>
</g>
<g>
	<g>
		<path d="M332.8,320c-99.84,0-179.2,79.36-179.2,179.2H512C512,399.36,432.64,320,332.8,320z"/>
	</g>
</g>
<g>
	<g>
		<path d="M215.04,33.28c-17.92-12.8-38.4-20.48-61.44-20.48c-56.32,0-102.4,46.08-102.4,102.4s46.08,102.4,102.4,102.4
			c2.56,0,5.12,0,7.68,0c-5.12-15.36-7.68-33.28-7.68-51.2C153.6,112.64,176.64,64,215.04,33.28z"/>
	</g>
</g>
<g>
	<g>
		<path d="M171.52,243.2c-5.12,0-12.8,0-17.92,0C69.12,243.2,0,312.32,0,396.8h128c17.92-38.4,48.64-71.68,87.04-94.72
			C197.12,286.72,181.76,266.24,171.52,243.2z"/>
	</g>
</g>
<g>
</g>
<g>
</g>
<g>
</g>
<g>
</g>
<g>
</g>
<g>
</g>
<g>
</g>
<g>
</g>
<g>
</g>
<g>
</g>
<g>
</g>
<g>
</g>
<g>
</g>
<g>
</g>
<g>
</g>
</svg>
