<?xml version="1.0" encoding="iso-8859-1"?>
<!-- Generator: Adobe Illustrator 19.0.0, SVG Export Plug-In . SVG Version: 6.00 Build 0)  -->
<svg version="1.1" id="Capa_1" xmlns="http://www.w3.org/2000/svg" xmlns:xlink="http://www.w3.org/1999/xlink" x="0px" y="0px"
	 viewBox="0 0 390.144 390.144" style="enable-background:new 0 0 390.144 390.144;" xml:space="preserve">
<g>
	<g>
		<path d="M298.496,190.202c-24.064,30.72-60.928,50.176-103.424,50.176c-41.472,0-79.36-19.456-103.424-50.176
			C35.84,225.53,0,286.97,0,355.066c0,18.432,14.336,32.256,32.256,32.256h325.12c18.432,0.512,32.768-14.848,32.768-32.256
			C390.144,286.97,354.304,225.018,298.496,190.202z"/>
	</g>
</g>
<g>
	<g>
		<path d="M195.072,2.81C136.704,2.81,89.6,50.426,89.6,108.282c0,58.368,47.616,105.472,105.472,105.472
			s105.472-46.592,105.472-105.472S253.44,2.81,195.072,2.81z"/>
	</g>
</g>
<g>
</g>
<g>
</g>
<g>
</g>
<g>
</g>
<g>
</g>
<g>
</g>
<g>
</g>
<g>
</g>
<g>
</g>
<g>
</g>
<g>
</g>
<g>
</g>
<g>
</g>
<g>
</g>
<g>
</g>
</svg>
